{"title":"Kid Racer 2010 DvDRip XviD - SDTeam","uid":5825633,"size":343731085,"categoryP":"video","categoryS":"movies","magnet":"?xt=urn:btih:3f65a5c977cc59a367722df8c7e8163c91cb20ef&amp;dn=Kid+Racer+2010+DvDRip+XviD+-+SDTeam&amp;tr=udp%3A%2F%2Ftracker.openbittorrent.com%3A80&amp;tr=udp%3A%2F%2Fopen.demonii.com%3A1337&amp;tr=udp%3A%2F%2Ftracker.coppersurfer.tk%3A6969&amp;tr=udp%3A%2F%2Fexodus.desync.com%3A6969","seeders":0,"leechers":0,"uploader":"bg2k9","files":-1,"time":1284255541,"description":"GREETZ: UnDeaD - BadGirl2k9 - virusofsaten - foxyb - WICCYWOLF - lizzymwah1\n\nVISIT http://www.seedboxworld.biz/ for all ur seedbox needs!\n\nRELEASE NAME: Kid Racer 2010 DvDRip XviD - SDTeam\nRELEASED BY: UnDeaD &amp; BadGirl2k9\nSIZE: 327 MB\n\nLANGUAGE: English\nIMDb: http://www.imdb.com/title/tt1715823/ \n\nPLOT: Fourteen year old go racecar enthusiast Marc Benton (Randy Shelly) \nattempts to raise enough money to buy his own go cart and compete in a \nlocal go cart race. Though at first it looks like Marc's dream is a \nlong shot, his goal comes into reach when he befriends kindly track \nmanager Buddy (Priscilla Barnes) and lands a job repairing race-damaged \ngo carts. Over time, with a little help from Buddy, Marc learns that \nbeing a true champion takes much more than fast reflexes alone.\n\nCOVER IMAGE: http://bayimg.com/caOkcAAco\nSCREENS: &lt;a href=&quot;\nhttp://i658.photobucket.com/albums/uu309/BadGirl2k9/screens/vlcsnap-2010-09-12-00h13m29s191.png&quot; rel=&quot;nofollow&quot; target=&quot;_NEW&quot;&gt;\nhttp://i658.photobucket.com/albums/uu309/BadGirl2k9/screens/vlcsnap-2010-09-12-00h13m29s191.png&lt;/a&gt; &lt;a href=&quot;\nhttp://i658.photobucket.com/albums/uu309/BadGirl2k9/screens/vlcsnap-2010-09-12-00h13m36s30.png&quot; rel=&quot;nofollow&quot; target=&quot;_NEW&quot;&gt;\nhttp://i658.photobucket.com/albums/uu309/BadGirl2k9/screens/vlcsnap-2010-09-12-00h13m36s30.png&lt;/a&gt; &lt;a href=&quot;\nhttp://i658.photobucket.com/albums/uu309/BadGirl2k9/screens/vlcsnap-2010-09-12-00h13m45s122.png&quot; rel=&quot;nofollow&quot; target=&quot;_NEW&quot;&gt;\nhttp://i658.photobucket.com/albums/uu309/BadGirl2k9/screens/vlcsnap-2010-09-12-00h13m45s122.png&lt;/a&gt;\n\nGeneral\nFormat                           : AVI\nFormat/Info                      : Audio Video Interleave\nFile size                        : 328 MiB\nDuration                         : 1h 20mn\nOverall bit rate                 : 572 Kbps\nWriting application              : MEncoder SVN-r22963\nWriting library                  : MPlayer\n\nVideo\nID                               : 0\nFormat                           : MPEG-4 Visual\nFormat profile                   : Simple@L3\nFormat settings, BVOP            : No\nFormat settings, QPel            : No\nFormat settings, GMC             : No warppoints\nFormat settings, Matrix          : Default (H.263)\nCodec ID                         : XVID\nCodec ID/Hint                    : XviD\nDuration                         : 1h 20mn\nBit rate                         : 496 Kbps\nWidth                            : 480 pixels\nHeight                           : 320 pixels\nDisplay aspect ratio             : 3:2\nFrame rate                       : 20.000 fps\nResolution                       : 8 bits\nColorimetry                      : 4:2:0\nScan type                        : Progressive\nBits/(Pixel*Frame)               : 0.161\nStream size                      : 284 MiB (87%)\nWriting library                  : XviD 1.1.2 (UTC 2006-11-01)\n\nAudio\nID                               : 1\nFormat                           : MPEG Audio\nFormat version                   : Version 1\nFormat profile                   : Layer 3\nCodec ID                         : 55\nCodec ID/Hint                    : MP3\nDuration                         : 1h 20mn\nBit rate mode                    : Constant\nBit rate                         : 64.0 Kbps\nChannel(s)                       : 2 channels\nSampling rate                    : 44.1 KHz\nStream size                      : 36.7 MiB (11%)\nAlignment                        : Aligned on interleaves\nInterleave, duration             : 26 ms (0.52 video frame)\nInterleave, preload duration     : 522 ms\nWriting library                  : LAMEUUULAME3.97\n\n\nGROUP NOTE: Big thanks to seedboxworld.biz for the seedbox!\n\n","torrent":{"xt":"urn:btih:3f65a5c977cc59a367722df8c7e8163c91cb20ef","amp;dn":"Kid+Racer+2010+DvDRip+XviD+-+SDTeam","amp;tr":["udp%3A%2F%2Ftracker.openbittorrent.com%3A80","udp%3A%2F%2Fopen.demonii.com%3A1337","udp%3A%2F%2Ftracker.coppersurfer.tk%3A6969","udp%3A%2F%2Fexodus.desync.com%3A6969"],"infoHash":"3f65a5c977cc59a367722df8c7e8163c91cb20ef","infoHashBuffer":{"type":"Buffer","data":[63,101,165,201,119,204,89,163,103,114,45,248,199,232,22,60,145,203,32,239]},"announce":[],"urlList":[]}}